<?xml version="1.0" encoding="utf-8"?>
<!-- Generator: Adobe Illustrator 16.0.0, SVG Export Plug-In . SVG Version: 6.00 Build 0)  -->
<!DOCTYPE svg PUBLIC "-//W3C//DTD SVG 1.1//EN" "http://www.w3.org/Graphics/SVG/1.1/DTD/svg11.dtd">
<svg version="1.1" id="Layer_1" xmlns:sketch="http://www.bohemiancoding.com/sketch/ns"
	 xmlns="http://www.w3.org/2000/svg" xmlns:xlink="http://www.w3.org/1999/xlink" x="0px" y="0px" width="298px" height="420px"
	 viewBox="-49.097 -110 298 420" enable-background="new -49.097 -110 298 420" xml:space="preserve">
<g id="Page_1">
	<g id="Layer_1_1_">
		<path id="Shape" fill="#131313" d="M184.295-94.449h-24.693l25.681,27.867v13.264h-52.899v-15.53h25.677l-25.677-27.868V-110
			h51.912V-94.449L184.295-94.449z M121.9-94.449H97.204l25.681,27.867v13.264H69.987v-15.53h25.68l-25.68-27.868V-110H121.9
			V-94.449L121.9-94.449z M60.113-93.819H33.465v24.32h26.648v16.18H14.525V-110h45.588V-93.819L60.113-93.819z"/>
		<path id="Shape_1_" fill="#1572B6" d="M-21.788,276.268L-48.866-27.441h297.538l-27.105,303.66L99.721,310L-21.788,276.268z"/>
		<path id="Shape_2_" fill="#33A9DC" d="M99.905,284.179l98.456-27.296L221.524-2.608H99.905V284.179z"/>
		<g id="Group" transform="translate(55.000000, 142.000000)">
			<path id="Shape_3_" fill="#FFFFFF" d="M44.903-34.576h49.289l3.404-38.142H44.903v-37.25h0.13h93.271l-0.892,9.993L128.258,2.671
				H44.903V-34.576z"/>
			<path id="Shape_4_" fill="#EBEBEB" d="M45.126,62.16l-0.162,0.045L3.479,51.006L0.826,21.297h-20.157h-17.232l5.217,58.485
				l76.3,21.183l0.171-0.049V62.16z"/>
			<path id="Shape_5_" fill="#FFFFFF" d="M91.026,1.096L86.54,50.979L44.998,62.193v38.753l76.361-21.164l0.56-6.294l6.48-72.393
				H91.026z"/>
			<path id="Shape_6_" fill="#EBEBEB" d="M45.033-109.968v23.134v14.023v0.092h-89.855h-0.119l-0.747-8.373l-1.697-18.884
				l-0.89-9.993H45.033z"/>
			<path id="Shape_7_" fill="#EBEBEB" d="M44.903-34.571v23.137V2.584v0.093H4.064H3.945L3.198-5.694L1.499-24.578l-0.89-9.993
				H44.903z"/>
		</g>
	</g>
</g>
</svg>
