<?xml version="1.0" encoding="utf-8"?>
<!-- Generator: Adobe Illustrator 16.0.0, SVG Export Plug-In . SVG Version: 6.00 Build 0)  -->
<!DOCTYPE svg PUBLIC "-//W3C//DTD SVG 1.1//EN" "http://www.w3.org/Graphics/SVG/1.1/DTD/svg11.dtd">
<svg version="1.1" id="Layer_1" xmlns="http://www.w3.org/2000/svg" xmlns:xlink="http://www.w3.org/1999/xlink" x="0px" y="0px"
	 width="149px" height="182.039px" viewBox="64.679 -135.708 149 182.039" enable-background="new 64.679 -135.708 149 182.039"
	 xml:space="preserve">
<g>
	<path fill="#0769AD" d="M74.221-63.36C61.043-44.425,62.67-19.795,72.755,0.324c0.226,0.491,0.486,0.957,0.732,1.43
		c0.141,0.308,0.301,0.616,0.477,0.918c0.076,0.167,0.195,0.35,0.293,0.511c0.161,0.331,0.333,0.633,0.506,0.947
		c0.322,0.545,0.647,1.099,0.971,1.641c0.181,0.299,0.359,0.604,0.56,0.904c0.344,0.584,0.746,1.161,1.104,1.745
		c0.161,0.248,0.311,0.491,0.486,0.734c0.517,0.785,1.034,1.567,1.607,2.333c0,0.022,0.02,0.04,0.043,0.05
		c0.087,0.133,0.183,0.258,0.271,0.377c0.486,0.663,0.972,1.313,1.48,1.953c0.172,0.238,0.364,0.475,0.54,0.707
		c0.463,0.563,0.917,1.121,1.373,1.68c0.172,0.198,0.347,0.413,0.528,0.616c0.604,0.729,1.24,1.452,1.89,2.167
		c0,0.008,0.02,0.024,0.031,0.041c0.02,0.029,0.043,0.057,0.088,0.082c0.624,0.688,1.262,1.358,1.912,2.031
		c0.203,0.203,0.41,0.403,0.635,0.621c0.494,0.502,0.991,1.012,1.522,1.508c0.215,0.203,0.43,0.404,0.636,0.604
		c0.692,0.647,1.381,1.294,2.104,1.915c0.012,0.012,0.023,0.018,0.034,0.028c0.118,0.102,0.248,0.203,0.358,0.306
		c0.636,0.541,1.271,1.084,1.917,1.62c0.263,0.215,0.52,0.421,0.779,0.63c0.54,0.426,1.08,0.834,1.619,1.245
		c0.282,0.212,0.562,0.425,0.854,0.649c0.584,0.436,1.188,0.859,1.781,1.283c0.217,0.158,0.433,0.313,0.661,0.46
		c0.053,0.048,0.119,0.093,0.172,0.136c0.593,0.387,1.155,0.766,1.74,1.149c0.257,0.167,0.506,0.327,0.753,0.494
		c0.904,0.579,1.813,1.133,2.709,1.675c0.257,0.136,0.52,0.279,0.768,0.424c0.667,0.389,1.35,0.773,2.042,1.141
		c0.375,0.209,0.754,0.393,1.144,0.588c0.466,0.254,0.952,0.511,1.446,0.765c0.119,0.048,0.237,0.093,0.345,0.149
		c0.206,0.094,0.397,0.192,0.593,0.294c0.757,0.373,1.533,0.724,2.333,1.079c0.152,0.07,0.313,0.136,0.474,0.221
		c0.898,0.385,1.793,0.756,2.711,1.118c0.215,0.085,0.43,0.181,0.659,0.255c0.833,0.321,1.694,0.641,2.547,0.948
		c0.11,0.045,0.207,0.079,0.313,0.113c0.95,0.327,1.89,0.632,2.85,0.932c0.223,0.062,0.451,0.141,0.689,0.204
		c0.982,0.299,1.932,0.643,2.938,0.832c63.716,11.616,82.23-38.293,82.23-38.293c-15.553,20.244-43.154,25.593-69.298,19.645
		c-0.972-0.22-1.932-0.531-2.915-0.818c-0.229-0.065-0.486-0.142-0.715-0.221c-0.949-0.287-1.89-0.599-2.805-0.909
		c-0.133-0.045-0.271-0.091-0.401-0.146c-0.83-0.283-1.649-0.597-2.469-0.915c-0.229-0.096-0.465-0.182-0.691-0.266
		c-0.907-0.356-1.802-0.737-2.674-1.124c-0.195-0.068-0.359-0.147-0.542-0.226c-0.766-0.352-1.5-0.695-2.243-1.051
		c-0.226-0.097-0.432-0.203-0.661-0.316c-0.584-0.277-1.164-0.588-1.737-0.887c-0.401-0.203-0.791-0.393-1.167-0.605
		c-0.703-0.375-1.403-0.779-2.104-1.163c-0.218-0.149-0.455-0.274-0.703-0.407c-0.907-0.541-1.825-1.096-2.72-1.668
		c-0.257-0.161-0.497-0.325-0.733-0.492c-0.659-0.414-1.309-0.853-1.943-1.285c-0.206-0.143-0.41-0.296-0.624-0.445
		c-0.616-0.433-1.221-0.87-1.833-1.322c-0.263-0.203-0.531-0.406-0.812-0.61c-0.55-0.427-1.101-0.847-1.651-1.29
		c-0.24-0.201-0.486-0.393-0.723-0.588c-0.712-0.573-1.381-1.144-2.062-1.736c-0.062-0.071-0.161-0.13-0.237-0.189
		c-0.723-0.647-1.446-1.311-2.161-1.968c-0.217-0.206-0.398-0.396-0.613-0.59c-0.516-0.506-1.033-1.002-1.544-1.517
		c-0.215-0.215-0.41-0.416-0.616-0.619c-0.647-0.653-1.282-1.328-1.912-2.018c-0.031-0.029-0.062-0.061-0.095-0.099
		c-0.662-0.723-1.297-1.457-1.935-2.203c-0.172-0.201-0.333-0.405-0.505-0.599c-0.466-0.573-0.927-1.148-1.401-1.721
		c-0.152-0.223-0.325-0.431-0.497-0.648c-0.551-0.707-1.079-1.414-1.61-2.142C78.13-26.675,72.894-53.99,84.501-76.402"/>
	<path fill="#0769AD" d="M115.135-79.318c-9.557,13.708-9.026,32.064-1.587,46.572c1.229,2.431,2.632,4.79,4.211,7.028
		c1.423,2.05,3,4.479,4.909,6.125c0.669,0.755,1.392,1.489,2.138,2.23c0.184,0.183,0.367,0.362,0.562,0.556
		c0.714,0.684,1.438,1.358,2.18,2.018c0.023,0.029,0.063,0.055,0.084,0.082c0.012,0.006,0.023,0.015,0.023,0.015
		c0.831,0.734,1.675,1.431,2.547,2.11c0.206,0.144,0.387,0.307,0.593,0.456c0.864,0.673,1.749,1.321,2.646,1.957
		c0.031,0.011,0.053,0.032,0.099,0.049c0.387,0.281,0.796,0.541,1.22,0.809c0.181,0.118,0.375,0.258,0.559,0.372
		c0.662,0.427,1.309,0.826,1.977,1.222c0.096,0.05,0.192,0.101,0.292,0.15c0.562,0.341,1.154,0.673,1.751,0.978
		c0.203,0.124,0.41,0.222,0.613,0.335c0.409,0.205,0.821,0.422,1.22,0.631c0.054,0.028,0.13,0.061,0.192,0.086
		c0.842,0.417,1.696,0.798,2.536,1.184c0.206,0.08,0.381,0.149,0.573,0.23c0.691,0.297,1.392,0.59,2.087,0.854
		c0.311,0.103,0.604,0.224,0.895,0.329c0.636,0.226,1.285,0.449,1.925,0.659c0.313,0.104,0.592,0.188,0.872,0.281
		c0.906,0.285,1.824,0.652,2.785,0.803c49.177,8.153,60.557-29.727,60.557-29.727c-10.244,14.759-30.075,21.782-51.229,16.291
		c-0.952-0.244-1.879-0.515-2.785-0.809c-0.294-0.078-0.55-0.168-0.83-0.265c-0.661-0.211-1.318-0.431-1.958-0.667
		c-0.291-0.107-0.59-0.216-0.884-0.33c-0.702-0.275-1.4-0.544-2.083-0.847c-0.207-0.083-0.399-0.151-0.563-0.237
		c-0.872-0.38-1.736-0.784-2.577-1.189c-0.433-0.223-0.854-0.437-1.286-0.663c-0.257-0.13-0.505-0.254-0.733-0.372
		c-0.574-0.298-1.101-0.61-1.642-0.929c-0.126-0.07-0.257-0.136-0.387-0.211c-0.658-0.399-1.338-0.798-1.963-1.214
		c-0.217-0.121-0.398-0.264-0.604-0.394c-0.433-0.273-0.854-0.549-1.298-0.847c-0.895-0.621-1.77-1.277-2.643-1.938
		c-0.205-0.168-0.398-0.318-0.597-0.48c-9.282-7.307-16.622-17.303-20.099-28.619c-3.668-11.756-2.858-24.952,3.465-35.656"/>
	<path fill="#0769AD" d="M149.525-91.243c-5.636,8.269-6.175,18.541-2.292,27.661c4.124,9.692,12.554,17.296,22.379,20.896
		c0.399,0.157,0.796,0.287,1.209,0.426c0.181,0.054,0.356,0.112,0.548,0.173c0.573,0.179,1.147,0.394,1.739,0.51
		c27.169,5.246,34.528-13.943,36.509-16.765c-6.467,9.294-17.314,11.521-30.622,8.291c-1.048-0.254-2.192-0.63-3.206-0.997
		c-1.296-0.46-2.578-0.993-3.833-1.583c-2.341-1.14-4.608-2.509-6.701-4.098c-11.921-9.032-19.301-26.265-11.532-40.303"/>
</g>
<g>
	<path fill="#333333" d="M183.225-126.242l0.203,0.857c0.057,0.246-0.1,0.444-0.35,0.444"/>
	<path fill="#333333" d="M166.908-127.712c-0.052,0.237-0.113,0.537-0.154,0.735l-1.79,8.377l1.883-8.825L166.908-127.712z"/>
	<polygon fill="#333333" points="113.287,-122.106 112.298,-118.606 113.287,-122.106 	"/>
	<path fill="#333333" d="M183.428-125.384l-0.517-2.181c-0.406-1.579-1.56-2.325-4.15-2.325h-10.897
		c-0.251,0-0.501,0.113-0.553,0.358l-4.135,19.607c-0.054,0.248-0.069,0.424-0.041,0.546c0.029,0.127,0.514,0.104,0.762,0.104h3.775
		c0.253,0,0.711,0.018,0.844-0.035c0.141-0.058,0.202-0.431,0.253-0.678l1.335-6.875l1.63-7.625c0.053-0.245,0.3-0.445,0.55-0.445
		l10.794-0.007C183.327-124.94,183.485-125.14,183.428-125.384"/>
	<path fill="#333333" d="M198.783-133.333c-0.253,0.002-4.787,0-4.787,0c-0.251,0-0.573,0.269-0.713,0.477l-8.403,12.362
		c-0.144,0.208-0.307,0.201-0.361-0.043l-0.621-2.71c-0.053-0.245-0.304-0.445-0.559-0.445h-5.4c-0.249,0-0.398,0.208-0.333,0.45
		l2.421,8.488c0.069,0.244,0.076,0.639,0.014,0.884l-1.129,4.299c-0.06,0.243,0.094,0.316,0.35,0.316h5.332
		c0.25,0,0.51-0.072,0.571-0.316l1.13-4.36c0.062-0.243,0.236-0.572,0.386-0.775l13.714-18.187c0.154-0.199,0.132-0.438-0.119-0.438
		H198.783z"/>
	<path fill="#333333" d="M142.553-129.873h-4.875c-0.249,0-0.504,0.087-0.553,0.334l-1.611,7.538l-1.604,7.217
		c-0.052,0.245-0.3,0.229-0.551,0.229h-3.203c-3.169,0-2.804-2.002-2.152-5.004c0.009-0.03,2.032-9.98,2.032-9.98
		c0.046-0.246-0.119-0.334-0.367-0.334h-4.645c-0.251,0-0.499,0.089-0.548,0.334l-1.869,9.973
		c-0.931,5.393-0.959,10.138,5.294,10.294c0.103,0.003,9.874,0,9.874,0c0.252,0,0.501-0.083,0.555-0.326l2.122-10.002l2.111-10.042
		C142.563-129.643,142.638-129.873,142.553-129.873z"/>
	<path fill="#333333" d="M94.003-129.89h-5.226c-0.25,0-0.503,0.06-0.558,0.307l-0.943,4.08c-0.053,0.241,0.107,0.435,0.36,0.435
		h5.003c0.252,0,0.504-0.228,0.557-0.471l0.908-4.111C94.104-129.652,94.176-129.89,94.003-129.89z"/>
	<path fill="#333333" d="M87.296-123.693c-0.249,0-0.503,0.198-0.557,0.443l-0.705,3.113l-1.572,7.188c0,0-0.836,3.82-0.917,4.058
		c0,0-0.704,2.76-2.387,2.649c-0.783-0.052-1.678-0.23-1.678-0.23h-0.002c-0.47-0.143-0.504,0.346-0.561,0.59l-1.039,4.478
		c-0.059,0.246,0.102,0.466,0.351,0.469c0,0,2.25,0.316,3.838,0.316h0.261c3.925,0,5.999-2.308,7.324-8.574l1.553-7.252l1.458-6.749
		c0.053-0.246-0.095-0.473-0.345-0.473"/>
	<path fill="#333333" d="M154.886-129.919c-8.79,0-10.888,5.433-12.055,10.818c-1.168,5.492-1.068,9.831,8.027,9.831h0.329
		c3.607,0,7.992,0,7.992,0c0.246-0.005,0.493-0.23,0.542-0.474l0.895-3.483c0.051-0.246-0.115-0.32-0.363-0.32h-8.181
		c-2.964,0-4.024-0.912-3.921-2.961c-0.003-0.233,0.265-0.827,0.515-0.827h12.602c0.554-0.003,0.57-0.328,0.57-0.328
		C163.121-123.453,163.205-129.919,154.886-129.919 M157.203-121.293c0,0.272-0.859,0.22-0.859,0.22l-6.853-0.05
		c-0.237,0-0.305-0.332-0.322-0.569c0-0.009,0.019-0.285,0.037-0.354c0.53-1.837,2.11-2.887,4.616-2.887
		c2.818,0,3.421,1.398,3.421,2.949"/>
	<path fill="#333333" d="M116.895-114.937c0,0,2.461-5.98,3.02-9.437c0.765-4.625-1.549-11.334-10.496-11.334
		c-8.893,0-12.753,6.404-14.23,13.367c-1.471,7.013,0.455,13.12,9.3,13.07l13.5-0.008c0.249-0.001,0.508-0.202,0.572-0.442
		l1.138-4.333c0.061-0.246-0.093-0.444-0.346-0.446l-1.087-0.008l-1.086-0.005c-0.214-0.002-0.337-0.142-0.309-0.326
		C116.873-114.87,116.878-114.902,116.895-114.937 M112.251-118.606l-1.013,3.462c-0.07,0.243-0.356,0.405-0.607,0.405h-5.226
		c-3.966,0-4.929-3.065-3.966-7.639c0.968-4.674,2.886-7.567,6.786-7.86c5.333-0.401,6.424,3.364,5.131,7.693L112.251-118.606z"/>
</g>
</svg>
