<?xml version="1.0" encoding="utf-8"?>
<!-- Generator: Adobe Illustrator 16.0.0, SVG Export Plug-In . SVG Version: 6.00 Build 0)  -->
<!DOCTYPE svg PUBLIC "-//W3C//DTD SVG 1.1//EN" "http://www.w3.org/Graphics/SVG/1.1/DTD/svg11.dtd">
<svg version="1.1" id="Layer_1" xmlns="http://www.w3.org/2000/svg" xmlns:xlink="http://www.w3.org/1999/xlink" x="0px" y="0px"
	 width="298px" height="420px" viewBox="-9.821 -254.689 298 420" enable-background="new -9.821 -254.689 298 420"
	 xml:space="preserve">
<g>
	<path fill="#0769AD" d="M9.305-54.565C-17.109-16.61-13.848,32.761,6.367,73.091c0.453,0.984,0.974,1.918,1.467,2.866
		c0.282,0.618,0.604,1.234,0.957,1.841c0.153,0.334,0.392,0.701,0.588,1.023c0.323,0.663,0.668,1.27,1.014,1.897
		c0.645,1.092,1.297,2.203,1.947,3.289c0.363,0.6,0.719,1.211,1.122,1.812c0.69,1.171,1.495,2.327,2.213,3.498
		c0.323,0.497,0.622,0.984,0.974,1.472c1.037,1.574,2.072,3.142,3.221,4.677c0,0.045,0.04,0.08,0.086,0.1
		c0.174,0.267,0.367,0.517,0.542,0.756c0.974,1.329,1.949,2.631,2.966,3.915c0.346,0.478,0.73,0.951,1.082,1.417
		c0.928,1.128,1.839,2.247,2.751,3.367c0.345,0.397,0.696,0.828,1.058,1.235c1.21,1.46,2.486,2.91,3.788,4.344
		c0,0.016,0.039,0.049,0.062,0.082c0.04,0.059,0.086,0.113,0.177,0.164c1.25,1.379,2.529,2.724,3.832,4.072
		c0.406,0.407,0.821,0.809,1.273,1.245c0.99,1.006,1.987,2.027,3.051,3.022c0.431,0.406,0.861,0.81,1.274,1.211
		c1.388,1.298,2.768,2.594,4.217,3.839c0.023,0.023,0.046,0.035,0.069,0.057c0.237,0.204,0.497,0.407,0.718,0.613
		c1.274,1.084,2.547,2.173,3.844,3.247c0.527,0.431,1.042,0.844,1.562,1.263c1.083,0.854,2.164,1.672,3.245,2.496
		c0.565,0.425,1.126,0.852,1.711,1.302c1.17,0.873,2.382,1.723,3.57,2.572c0.436,0.316,0.867,0.626,1.325,0.922
		c0.107,0.096,0.238,0.186,0.346,0.271c1.188,0.775,2.314,1.535,3.487,2.305c0.515,0.335,1.014,0.655,1.51,0.99
		c1.812,1.161,3.635,2.271,5.43,3.357c0.516,0.271,1.041,0.56,1.54,0.85c1.336,0.779,2.706,1.55,4.093,2.286
		c0.752,0.419,1.511,0.787,2.292,1.179c0.935,0.509,1.908,1.023,2.899,1.532c0.238,0.096,0.476,0.187,0.691,0.3
		c0.413,0.188,0.796,0.386,1.188,0.589c1.517,0.748,3.073,1.451,4.677,2.163c0.304,0.142,0.628,0.272,0.95,0.442
		c1.8,0.771,3.595,1.516,5.434,2.241c0.432,0.171,0.861,0.362,1.32,0.512c1.671,0.644,3.396,1.284,5.105,1.9
		c0.221,0.09,0.414,0.158,0.628,0.228c1.904,0.655,3.789,1.266,5.713,1.867c0.446,0.123,0.904,0.281,1.381,0.409
		c1.969,0.599,3.872,1.288,5.888,1.668c127.72,23.284,164.831-76.76,164.831-76.76c-31.176,40.578-86.503,51.302-138.908,39.379
		c-1.947-0.44-3.873-1.065-5.842-1.641c-0.459-0.131-0.975-0.284-1.433-0.442c-1.903-0.576-3.788-1.2-5.622-1.822
		c-0.267-0.091-0.543-0.183-0.803-0.294c-1.664-0.567-3.307-1.196-4.949-1.834c-0.458-0.192-0.933-0.364-1.386-0.533
		c-1.817-0.714-3.612-1.478-5.36-2.253c-0.391-0.137-0.72-0.295-1.087-0.452c-1.535-0.704-3.006-1.394-4.496-2.106
		c-0.452-0.193-0.866-0.407-1.324-0.634c-1.172-0.556-2.333-1.179-3.481-1.777c-0.804-0.407-1.584-0.787-2.339-1.214
		c-1.409-0.752-2.813-1.563-4.216-2.331c-0.438-0.3-0.913-0.551-1.41-0.816c-1.817-1.085-3.659-2.196-5.453-3.344
		c-0.515-0.323-0.995-0.651-1.47-0.986c-1.32-0.83-2.623-1.709-3.896-2.576c-0.413-0.286-0.821-0.593-1.25-0.893
		c-1.235-0.867-2.447-1.744-3.674-2.65c-0.527-0.407-1.065-0.814-1.627-1.224c-1.103-0.855-2.207-1.697-3.31-2.586
		c-0.481-0.403-0.974-0.787-1.45-1.179c-1.427-1.148-2.768-2.292-4.133-3.48c-0.124-0.142-0.322-0.262-0.475-0.379
		c-1.45-1.297-2.899-2.627-4.331-3.945c-0.436-0.414-0.797-0.793-1.229-1.184c-1.035-1.015-2.071-2.01-3.095-3.04
		c-0.432-0.432-0.821-0.834-1.235-1.24c-1.297-1.309-2.57-2.662-3.833-4.045c-0.062-0.059-0.125-0.123-0.191-0.198
		c-1.326-1.45-2.6-2.921-3.879-4.416c-0.345-0.402-0.668-0.813-1.013-1.2c-0.935-1.148-1.858-2.302-2.809-3.45
		c-0.306-0.447-0.651-0.863-0.996-1.3c-1.105-1.417-2.162-2.834-3.227-4.294C17.141,18.97,6.645-35.782,29.912-80.708"/>
	<path fill="#0769AD" d="M91.319-86.553C72.161-59.074,73.225-22.28,88.137,6.801c2.463,4.872,5.276,9.601,8.441,14.088
		c2.853,4.11,6.013,8.977,9.839,12.277c1.342,1.513,2.791,2.985,4.285,4.47c0.368,0.366,0.736,0.726,1.126,1.114
		c1.432,1.371,2.881,2.721,4.37,4.044c0.046,0.059,0.126,0.11,0.169,0.163c0.023,0.012,0.046,0.029,0.046,0.029
		c1.665,1.471,3.357,2.869,5.106,4.23c0.413,0.289,0.775,0.615,1.189,0.913c1.732,1.349,3.505,2.648,5.305,3.923
		c0.062,0.022,0.106,0.064,0.197,0.099c0.775,0.563,1.597,1.085,2.446,1.622c0.362,0.236,0.751,0.518,1.12,0.746
		c1.326,0.855,2.623,1.654,3.963,2.449c0.193,0.1,0.386,0.202,0.584,0.301c1.125,0.684,2.313,1.35,3.51,1.961
		c0.406,0.248,0.822,0.445,1.229,0.672c0.82,0.41,1.646,0.846,2.444,1.265c0.108,0.056,0.261,0.122,0.386,0.173
		c1.688,0.834,3.4,1.599,5.084,2.372c0.413,0.16,0.764,0.3,1.149,0.461c1.386,0.597,2.789,1.183,4.183,1.713
		c0.623,0.206,1.212,0.449,1.793,0.659c1.274,0.453,2.576,0.9,3.858,1.322c0.629,0.209,1.187,0.377,1.748,0.563
		c1.816,0.57,3.657,1.307,5.583,1.61c98.575,16.343,121.386-59.587,121.386-59.587c-20.534,29.583-60.285,43.663-102.688,32.654
		c-1.908-0.488-3.766-1.032-5.583-1.62c-0.589-0.155-1.102-0.338-1.663-0.53c-1.326-0.424-2.644-0.863-3.926-1.338
		c-0.583-0.216-1.182-0.434-1.771-0.661c-1.407-0.552-2.807-1.091-4.175-1.698c-0.415-0.166-0.801-0.303-1.13-0.475
		c-1.748-0.763-3.48-1.572-5.166-2.384c-0.867-0.447-1.711-0.875-2.578-1.328c-0.515-0.26-1.012-0.51-1.47-0.746
		c-1.151-0.598-2.206-1.223-3.291-1.862c-0.252-0.14-0.515-0.272-0.774-0.423c-1.319-0.801-2.683-1.599-3.935-2.434
		c-0.435-0.243-0.799-0.53-1.21-0.79c-0.867-0.548-1.711-1.101-2.602-1.698c-1.793-1.245-3.547-2.561-5.297-3.884
		c-0.411-0.336-0.799-0.637-1.197-0.962c-18.606-14.647-33.319-34.684-40.289-57.367c-7.354-23.565-5.729-50.016,6.946-71.472"/>
	<path fill="#0769AD" d="M160.252-110.456c-11.297,16.575-12.378,37.166-4.595,55.447c8.267,19.429,25.164,34.671,44.859,41.885
		c0.8,0.315,1.595,0.575,2.423,0.854c0.362,0.107,0.715,0.225,1.099,0.347c1.148,0.359,2.3,0.789,3.486,1.021
		c54.46,10.516,69.212-27.949,73.182-33.604c-12.963,18.631-34.707,23.095-61.382,16.618c-2.101-0.509-4.395-1.263-6.427-1.999
		c-2.598-0.923-5.168-1.99-7.684-3.173c-4.691-2.284-9.237-5.03-13.432-8.213c-23.896-18.105-38.689-52.649-23.117-80.787"/>
</g>
<g>
	<path fill="#333333" d="M246.46-231.678l0.494,2.084c0.139,0.597-0.242,1.079-0.85,1.079"/>
	<path fill="#333333" d="M206.798-235.252c-0.126,0.577-0.275,1.306-0.376,1.787l-4.351,20.364l4.577-21.454L206.798-235.252z"/>
	<polygon fill="#333333" points="76.45,-221.625 74.047,-213.117 76.45,-221.625 	"/>
	<path fill="#333333" d="M246.954-229.593l-1.256-5.302c-0.987-3.837-3.79-5.651-10.089-5.651H209.12
		c-0.611,0-1.219,0.275-1.345,0.871l-10.051,47.662c-0.13,0.602-0.168,1.031-0.1,1.328c0.071,0.309,1.248,0.254,1.852,0.254h9.178
		c0.614,0,1.728,0.042,2.051-0.085c0.342-0.141,0.492-1.047,0.615-1.649l3.245-16.712l3.961-18.536
		c0.129-0.595,0.729-1.082,1.337-1.082l26.239-0.018C246.71-228.515,247.093-229,246.954-229.593"/>
	<path fill="#333333" d="M284.281-248.916c-0.614,0.006-11.637,0-11.637,0c-0.61,0-1.394,0.654-1.732,1.159l-20.428,30.05
		c-0.35,0.505-0.745,0.488-0.879-0.105l-1.509-6.588c-0.129-0.594-0.739-1.082-1.358-1.082h-13.128c-0.604,0-0.969,0.504-0.81,1.093
		l5.886,20.633c0.168,0.593,0.185,1.554,0.033,2.148l-2.744,10.45c-0.146,0.59,0.228,0.769,0.85,0.769h12.962
		c0.607,0,1.238-0.176,1.388-0.769l2.747-10.599c0.149-0.59,0.575-1.391,0.938-1.885l33.337-44.21
		c0.374-0.484,0.32-1.063-0.29-1.063H284.281z"/>
	<path fill="#333333" d="M147.593-240.505h-11.85c-0.604,0-1.225,0.212-1.344,0.812l-3.916,18.324l-3.9,17.544
		c-0.127,0.595-0.729,0.556-1.34,0.556h-7.787c-7.705,0-6.816-4.868-5.23-12.164c0.021-0.072,4.939-24.26,4.939-24.26
		c0.111-0.598-0.289-0.812-0.893-0.812h-11.29c-0.61,0-1.214,0.216-1.333,0.812l-4.543,24.242
		c-2.264,13.109-2.333,24.644,12.868,25.023c0.251,0.008,24.003,0,24.003,0c0.613,0,1.217-0.203,1.35-0.792l5.156-24.314
		l5.133-24.412C147.616-239.946,147.799-240.505,147.593-240.505z"/>
	<path fill="#333333" d="M29.573-240.546H16.869c-0.609,0-1.224,0.145-1.357,0.745l-2.292,9.917c-0.13,0.586,0.26,1.057,0.875,1.057
		h12.163c0.613,0,1.225-0.555,1.354-1.146l2.208-9.994C29.82-239.967,29.995-240.546,29.573-240.546z"/>
	<path fill="#333333" d="M13.27-225.481c-0.605,0-1.224,0.482-1.354,1.078l-1.713,7.567l-3.822,17.472c0,0-2.032,9.285-2.228,9.863
		c0,0-1.71,6.709-5.802,6.439c-1.903-0.126-4.078-0.559-4.078-0.559h-0.005c-1.142-0.348-1.225,0.84-1.362,1.434l-2.525,10.884
		c-0.144,0.597,0.247,1.133,0.852,1.141c0,0,5.47,0.769,9.33,0.769h0.634c9.541,0,14.582-5.61,17.803-20.842l3.775-17.629
		l3.543-16.405c0.128-0.597-0.23-1.15-0.839-1.15"/>
	<path fill="#333333" d="M177.573-240.618c-21.368,0-26.468,13.208-29.304,26.297c-2.839,13.35-2.598,23.898,19.513,23.898h0.801
		c8.769,0,19.428,0,19.428,0c0.599-0.012,1.199-0.559,1.317-1.152l2.174-8.467c0.124-0.597-0.279-0.778-0.883-0.778h-19.886
		c-7.205,0-9.783-2.216-9.531-7.198c-0.007-0.567,0.644-2.009,1.251-2.009h30.633c1.347-0.009,1.387-0.797,1.387-0.797
		C197.592-224.899,197.796-240.618,177.573-240.618 M183.205-219.648c0,0.663-2.089,0.535-2.089,0.535l-16.657-0.121
		c-0.576,0-0.741-0.806-0.783-1.383c0-0.021,0.045-0.693,0.091-0.86c1.288-4.465,5.129-7.018,11.221-7.018
		c6.852,0,8.316,3.398,8.316,7.168"/>
	<path fill="#333333" d="M85.222-204.197c0,0,5.984-14.538,7.341-22.94c1.86-11.244-3.767-27.551-25.515-27.551
		c-21.618,0-31.001,15.567-34.591,32.494c-3.575,17.048,1.106,31.893,22.606,31.772l32.815-0.02
		c0.605-0.003,1.235-0.492,1.392-1.074l2.766-10.532c0.147-0.598-0.227-1.08-0.841-1.083l-2.642-0.019l-2.641-0.012
		c-0.521-0.006-0.821-0.345-0.751-0.792C85.169-204.034,85.181-204.113,85.222-204.197 M73.933-213.117l-2.463,8.417
		c-0.17,0.59-0.865,0.984-1.475,0.984H57.291c-9.641,0-11.983-7.451-9.641-18.568c2.354-11.363,7.015-18.396,16.495-19.107
		c12.964-0.975,15.615,8.178,12.473,18.701L73.933-213.117z"/>
</g>
</svg>
